<?xml version="1.0" encoding="UTF-8"?>
<svg xmlns="http://www.w3.org/2000/svg" viewBox="0 0 440 530" role="img" aria-labelledby="title desc">
<title id="title">Energetikai besorolási skála A+++–I</title><desc id="desc">Tizenkét energetikai besorolási kategória A+++-tól I-ig, zöldtől pirosig.</desc>
<rect width="440" height="530" fill="#fff"/><g font-family="Arial, sans-serif" fill="#243746" font-size="15">
<text x="55" y="24">min</text><text x="170" y="16">Energetikai</text><text x="170" y="34">besorolás</text><text x="355" y="24">max</text>
<line x1="0" y1="75" x2="440" y2="75" stroke="#d7dadd"/><text x="55" y="64" text-anchor="middle"></text><rect x="145" y="50" width="68" height="24" rx="6" fill="#2d7d13"/><text x="179" y="67" text-anchor="middle" fill="#fff" font-weight="700">A+++</text><text x="365" y="64" text-anchor="middle">≤0</text><line x1="0" y1="113" x2="440" y2="113" stroke="#d7dadd"/><text x="55" y="102" text-anchor="middle">0<</text><rect x="145" y="88" width="68" height="24" rx="6" fill="#3f9410"/><text x="179" y="105" text-anchor="middle" fill="#fff" font-weight="700">A++</text><text x="365" y="102" text-anchor="middle">≤50</text><line x1="0" y1="151" x2="440" y2="151" stroke="#d7dadd"/><text x="55" y="140" text-anchor="middle">50<</text><rect x="145" y="126" width="68" height="24" rx="6" fill="#62ab0d"/><text x="179" y="143" text-anchor="middle" fill="#fff" font-weight="700">A+</text><text x="365" y="140" text-anchor="middle">≤90</text><line x1="0" y1="189" x2="440" y2="189" stroke="#d7dadd"/><text x="55" y="178" text-anchor="middle">90<</text><rect x="145" y="164" width="68" height="24" rx="6" fill="#7fbd0c"/><text x="179" y="181" text-anchor="middle" fill="#fff" font-weight="700">A</text><text x="365" y="178" text-anchor="middle">≤100</text><line x1="0" y1="227" x2="440" y2="227" stroke="#d7dadd"/><text x="55" y="216" text-anchor="middle">100<</text><rect x="145" y="202" width="68" height="24" rx="6" fill="#9dca0b"/><text x="179" y="219" text-anchor="middle" fill="#fff" font-weight="700">B</text><text x="365" y="216" text-anchor="middle">≤130</text><line x1="0" y1="265" x2="440" y2="265" stroke="#d7dadd"/><text x="55" y="254" text-anchor="middle">130<</text><rect x="145" y="240" width="68" height="24" rx="6" fill="#c4ca0a"/><text x="179" y="257" text-anchor="middle" fill="#fff" font-weight="700">C</text><text x="365" y="254" text-anchor="middle">≤160</text><line x1="0" y1="303" x2="440" y2="303" stroke="#d7dadd"/><text x="55" y="292" text-anchor="middle">160<</text><rect x="145" y="278" width="68" height="24" rx="6" fill="#efc10a"/><text x="179" y="295" text-anchor="middle" fill="#fff" font-weight="700">D</text><text x="365" y="292" text-anchor="middle">≤200</text><line x1="0" y1="341" x2="440" y2="341" stroke="#d7dadd"/><text x="55" y="330" text-anchor="middle">200<</text><rect x="145" y="316" width="68" height="24" rx="6" fill="#ed9505"/><text x="179" y="333" text-anchor="middle" fill="#fff" font-weight="700">E</text><text x="365" y="330" text-anchor="middle">≤250</text><line x1="0" y1="379" x2="440" y2="379" stroke="#d7dadd"/><text x="55" y="368" text-anchor="middle">250<</text><rect x="145" y="354" width="68" height="24" rx="6" fill="#dc6207"/><text x="179" y="371" text-anchor="middle" fill="#fff" font-weight="700">F</text><text x="365" y="368" text-anchor="middle">≤310</text><line x1="0" y1="417" x2="440" y2="417" stroke="#d7dadd"/><text x="55" y="406" text-anchor="middle">310<</text><rect x="145" y="392" width="68" height="24" rx="6" fill="#c63a0a"/><text x="179" y="409" text-anchor="middle" fill="#fff" font-weight="700">G</text><text x="365" y="406" text-anchor="middle">≤390</text><line x1="0" y1="455" x2="440" y2="455" stroke="#d7dadd"/><text x="55" y="444" text-anchor="middle">390<</text><rect x="145" y="430" width="68" height="24" rx="6" fill="#b2080b"/><text x="179" y="447" text-anchor="middle" fill="#fff" font-weight="700">H</text><text x="365" y="444" text-anchor="middle">≤500</text><line x1="0" y1="493" x2="440" y2="493" stroke="#d7dadd"/><text x="55" y="482" text-anchor="middle">500<</text><rect x="145" y="468" width="68" height="24" rx="6" fill="#8e0008"/><text x="179" y="485" text-anchor="middle" fill="#fff" font-weight="700">I</text><text x="365" y="482" text-anchor="middle"></text></g></svg>